<?xml version="1.0" standalone="no"?>
<!DOCTYPE svg PUBLIC "-//W3C//DTD SVG 20010904//EN"
 "http://www.w3.org/TR/2001/REC-SVG-20010904/DTD/svg10.dtd">
<svg version="1.0" xmlns="http://www.w3.org/2000/svg"
 width="16.000000pt" height="16.000000pt" viewBox="0 0 16.000000 16.000000"
 preserveAspectRatio="xMidYMid meet">
<metadata>
Created by potrace 1.11, written by Peter Selinger 2001-2013
</metadata>
<g transform="translate(0.000000,16.000000) scale(0.001600,-0.001600)"
fill="#000000" stroke="none">
<path d="M1685 9040 c-1 -3 -2 -1823 -1 -4045 l1 -4040 1915 1 c2023 1 2149 3
2430 39 19 3 55 7 80 10 673 85 1123 285 1511 674 167 167 325 388 438 611 57
113 126 275 141 335 5 17 17 62 28 100 38 131 65 281 79 430 14 149 6 510 -13
610 -2 10 -6 37 -9 60 -48 331 -212 701 -414 935 -189 218 -428 387 -703 498
l-95 38 71 39 c66 35 265 161 276 174 3 4 23 19 45 35 81 59 241 231 308 331
119 180 208 400 243 605 3 14 9 50 15 80 18 99 24 202 24 390 0 223 -10 324
-46 498 -135 632 -523 1100 -1129 1359 -86 37 -320 116 -374 127 -12 3 -64 14
-116 25 -90 19 -132 27 -190 36 -136 20 -252 33 -380 41 -113 8 -4130 12
-4135 4z m3710 -1414 c17 -2 61 -7 100 -10 38 -4 81 -8 95 -11 14 -2 54 -9 90
-15 36 -6 79 -13 95 -16 54 -9 149 -35 215 -59 330 -116 491 -438 446 -890 -4
-38 -9 -77 -11 -85 -2 -8 -7 -30 -10 -49 -16 -96 -96 -251 -169 -329 -45 -49
-155 -125 -236 -163 -153 -71 -357 -120 -570 -135 -113 -8 -2129 -8 -2137 0
-4 4 -7 1446 -3 1737 l0 36 1033 -3 c567 -2 1046 -5 1062 -8z m145 -3120 c30
-4 75 -9 100 -12 65 -8 99 -13 155 -24 28 -6 61 -12 74 -15 55 -10 191 -60
261 -96 262 -132 415 -344 463 -644 15 -89 16 -363 2 -430 -3 -16 -10 -57 -16
-90 -60 -342 -261 -594 -574 -720 -76 -30 -226 -71 -290 -79 -105 -13 -143
-18 -170 -23 -16 -3 -528 -6 -1137 -8 l-1108 -2 -1 46 c-1 59 -1 2071 0 2091
1 14 125 15 1094 14 600 0 1117 -4 1147 -8z"/>
</g>
</svg>
